<?xml version="1.0" standalone="no"?>
<!DOCTYPE svg PUBLIC "-//W3C//DTD SVG 20010904//EN"
 "http://www.w3.org/TR/2001/REC-SVG-20010904/DTD/svg10.dtd">
<svg version="1.0" xmlns="http://www.w3.org/2000/svg"
 width="225.000000pt" height="225.000000pt" viewBox="0 0 225.000000 225.000000"
 preserveAspectRatio="xMidYMid meet">

<g transform="translate(0.000000,225.000000) scale(0.100000,-0.100000)"
fill="#000000" stroke="none">
<path d="M1116 2016 c-21 -8 -55 -28 -76 -45 l-39 -31 -53 25 c-29 14 -71 25
-94 25 -58 0 -142 -45 -182 -100 -22 -28 -47 -49 -71 -57 -45 -15 -109 -83
-117 -123 -5 -24 -16 -34 -59 -54 -30 -14 -65 -40 -84 -64 -25 -30 -42 -41
-73 -46 -168 -27 -294 -218 -258 -392 22 -108 67 -173 159 -229 32 -20 64 -48
72 -61 17 -33 76 -80 126 -101 62 -26 169 -23 231 8 l51 25 12 -29 c7 -16 35
-53 63 -82 64 -65 139 -96 238 -96 66 0 162 23 173 42 13 20 23 7 29 -39 10
-79 72 -159 153 -201 12 -6 57 -16 99 -21 94 -12 148 -40 194 -103 l35 -47 72
0 c81 0 86 5 53 55 -26 40 -44 124 -36 168 6 32 11 36 47 42 22 4 60 22 85 41
24 19 53 34 64 34 30 0 91 34 121 67 43 46 63 93 63 153 1 52 4 58 42 93 84
76 111 207 65 314 -13 29 -29 58 -37 64 -9 7 -14 32 -14 71 0 56 -17 115 -42
145 -6 8 -13 36 -14 64 -7 141 -135 269 -270 269 -47 0 -53 2 -64 29 -43 106
-194 163 -294 111 l-39 -19 -38 34 c-21 18 -53 42 -71 51 -44 23 -171 29 -222
10z m199 -50 c47 -21 90 -61 114 -104 9 -15 11 -15 29 6 41 47 123 64 185 39
30 -13 107 -88 107 -105 0 -4 -19 -17 -43 -29 -65 -31 -103 -68 -132 -128 -31
-62 -40 -150 -15 -150 9 0 17 16 22 45 24 140 139 231 274 217 187 -19 279
-239 164 -388 -21 -26 -26 -39 -18 -52 5 -10 13 -15 18 -12 16 10 85 -32 120
-71 44 -51 60 -93 60 -161 0 -99 -57 -181 -159 -226 -36 -16 -57 -18 -108 -14
-70 7 -78 -1 -46 -50 12 -17 18 -46 18 -82 0 -93 -56 -159 -151 -179 -26 -5
-43 -16 -51 -32 -18 -36 -15 -116 6 -177 l18 -53 -31 0 c-24 0 -36 8 -53 34
-42 65 -134 116 -211 116 -63 0 -115 23 -162 70 -52 51 -70 99 -70 184 0 39
-3 55 -11 50 -6 -3 -40 22 -78 57 l-66 64 60 -63 60 -63 -33 -28 c-41 -35 -93
-51 -169 -51 -122 0 -209 55 -264 165 -17 36 -33 65 -35 65 -2 0 -24 -14 -49
-32 -83 -59 -224 -50 -307 20 -28 24 -29 27 -12 33 17 7 17 8 -3 8 -13 1 -23
7 -23 15 0 8 -28 30 -63 48 -68 38 -127 105 -146 168 -14 48 -13 155 2 197 16
43 73 122 95 130 9 4 25 15 35 24 17 15 54 28 128 43 17 4 35 19 47 40 26 45
62 67 115 73 42 5 43 6 39 39 -7 61 49 122 129 138 17 4 31 16 38 35 24 58
105 111 168 111 28 0 91 -27 128 -55 20 -14 24 -12 67 28 74 71 171 86 263 43z
m815 -623 c0 -38 -2 -39 -38 -16 -15 9 -28 17 -29 18 -1 1 7 21 19 45 l22 44
13 -30 c6 -16 12 -44 13 -61z m-60 -575 c0 -25 -8 -57 -19 -74 -20 -32 -72
-76 -104 -87 -15 -6 -17 -3 -10 16 4 12 8 55 7 95 l-1 72 36 1 c20 0 45 4 56
9 33 14 35 12 35 -32z"/>
<path d="M1491 1784 c0 -11 3 -14 6 -6 3 7 2 16 -1 19 -3 4 -6 -2 -5 -13z"/>
<path d="M1416 1713 c-43 -46 -53 -52 -95 -56 l-46 -3 45 -2 c43 -2 49 1 100
53 29 30 52 56 49 58 -2 1 -26 -21 -53 -50z"/>
<path d="M1435 1678 l-60 -63 63 60 c58 55 67 65 59 65 -1 0 -29 -28 -62 -62z"/>
<path d="M660 1588 c43 -47 46 -48 100 -46 l55 2 -55 3 c-48 4 -60 9 -100 46
l-45 42 45 -47z"/>
<path d="M635 1563 l49 -53 66 2 65 2 -65 3 c-62 4 -68 6 -115 51 l-50 47 50
-52z"/>
<path d="M1954 1298 l-19 -23 23 19 c21 18 27 26 19 26 -2 0 -12 -10 -23 -22z"/>
<path d="M1823 1243 c26 -2 67 -2 90 0 23 2 2 3 -48 3 -49 0 -68 -1 -42 -3z"/>
<path d="M622 1123 c48 -2 129 -2 180 0 51 1 12 3 -87 3 -99 0 -141 -2 -93 -3z"/>
<path d="M613 1093 c54 -2 139 -2 190 0 51 1 7 3 -98 3 -104 0 -146 -2 -92 -3z"/>
<path d="M473 1023 c20 -2 54 -2 75 0 20 2 3 4 -38 4 -41 0 -58 -2 -37 -4z"/>
<path d="M380 965 c-24 -24 -53 -46 -64 -48 -21 -4 -21 -4 -1 -6 13 0 40 19
70 49 27 28 47 50 44 50 -3 0 -24 -20 -49 -45z"/>
<path d="M488 993 c17 -2 47 -2 65 0 17 2 3 4 -33 4 -36 0 -50 -2 -32 -4z"/>
<path d="M1690 955 c19 -19 36 -35 39 -35 3 0 -10 16 -29 35 -19 19 -36 35
-39 35 -3 0 10 -16 29 -35z"/>
<path d="M395 928 l-50 -53 53 50 c48 46 57 55 49 55 -1 0 -25 -24 -52 -52z"/>
<path d="M1748 913 c6 -2 18 -2 25 0 6 3 1 5 -13 5 -14 0 -19 -2 -12 -5z"/>
<path d="M1728 883 c7 -3 16 -2 19 1 4 3 -2 6 -13 5 -11 0 -14 -3 -6 -6z"/>
<path d="M935 873 l120 -4 70 -67 70 -67 -70 73 -69 72 -121 -2 -120 -2 120
-3z"/>
<path d="M1255 633 l39 -43 81 2 80 2 -80 3 c-76 4 -82 6 -120 41 l-40 37 40
-42z"/>
<path d="M1289 648 c23 -26 29 -28 95 -26 l71 2 -70 3 c-54 3 -75 9 -95 26
l-25 22 24 -27z"/>
</g>
</svg>
